// Minimal valid SMD: a unit cube centered on the origin.
// SMD requires a material name line before each 3-vertex triangle group.
version 1
nodes
0 "cube_root" -1
end
skeleton
time 0
0 0 0 0 0 0 0
end
triangles
cube_material
0 0.5 -0.5 0.5 1 0 0 0 0
0 0.5 -0.5 -0.5 1 0 0 1 0
0 0.5 0.5 -0.5 1 0 0 1 1
cube_material
0 0.5 -0.5 0.5 1 0 0 0 0
0 0.5 0.5 -0.5 1 0 0 1 1
0 0.5 0.5 0.5 1 0 0 0 1
cube_material
0 -0.5 -0.5 -0.5 -1 0 0 0 0
0 -0.5 -0.5 0.5 -1 0 0 1 0
0 -0.5 0.5 0.5 -1 0 0 1 1
cube_material
0 -0.5 -0.5 -0.5 -1 0 0 0 0
0 -0.5 0.5 0.5 -1 0 0 1 1
0 -0.5 0.5 -0.5 -1 0 0 0 1
cube_material
0 -0.5 0.5 0.5 0 1 0 0 0
0 0.5 0.5 0.5 0 1 0 1 0
0 0.5 0.5 -0.5 0 1 0 1 1
cube_material
0 -0.5 0.5 0.5 0 1 0 0 0
0 0.5 0.5 -0.5 0 1 0 1 1
0 -0.5 0.5 -0.5 0 1 0 0 1
cube_material
0 -0.5 -0.5 -0.5 0 -1 0 0 0
0 0.5 -0.5 -0.5 0 -1 0 1 0
0 0.5 -0.5 0.5 0 -1 0 1 1
cube_material
0 -0.5 -0.5 -0.5 0 -1 0 0 0
0 0.5 -0.5 0.5 0 -1 0 1 1
0 -0.5 -0.5 0.5 0 -1 0 0 1
cube_material
0 -0.5 -0.5 0.5 0 0 1 0 0
0 0.5 -0.5 0.5 0 0 1 1 0
0 0.5 0.5 0.5 0 0 1 1 1
cube_material
0 -0.5 -0.5 0.5 0 0 1 0 0
0 0.5 0.5 0.5 0 0 1 1 1
0 -0.5 0.5 0.5 0 0 1 0 1
cube_material
0 0.5 -0.5 -0.5 0 0 -1 0 0
0 -0.5 -0.5 -0.5 0 0 -1 1 0
0 -0.5 0.5 -0.5 0 0 -1 1 1
cube_material
0 0.5 -0.5 -0.5 0 0 -1 0 0
0 -0.5 0.5 -0.5 0 0 -1 1 1
0 0.5 0.5 -0.5 0 0 -1 0 1
end
